<svg width="103" height="32" viewBox="0 0 103 32" fill="none" xmlns="http://www.w3.org/2000/svg">
<g clip-path="url(#clip0_10_15679)">
<path d="M6.83097 16.3324V28H1.23366V7.81818H6.56818V11.3789H6.80469C7.25142 10.2051 8.00036 9.27663 9.05149 8.59339C10.1026 7.9014 11.3771 7.5554 12.875 7.5554C14.2765 7.5554 15.4985 7.86198 16.5408 8.47514C17.5832 9.0883 18.3935 9.96425 18.9716 11.103C19.5497 12.233 19.8388 13.5819 19.8388 15.1499V28H14.2415V16.1484C14.2502 14.9134 13.9349 13.9498 13.2955 13.2578C12.656 12.5571 11.7757 12.2067 10.6545 12.2067C9.90116 12.2067 9.23544 12.3687 8.65732 12.6928C8.08795 13.0169 7.64122 13.4899 7.31712 14.1119C7.00178 14.725 6.83973 15.4652 6.83097 16.3324Z" fill="white"/>
<path d="M26.664 21.816L38.412 7.956L39.292 11.256L27.544 25.028L26.664 21.816ZM33 30.528C31.064 30.528 29.392 29.9853 27.984 28.9C26.6053 27.8147 25.5347 26.2307 24.772 24.148C24.0093 22.036 23.628 19.4693 23.628 16.448C23.628 13.4853 24.0093 10.948 24.772 8.836C25.5347 6.69467 26.6053 5.052 27.984 3.908C29.392 2.764 31.064 2.192 33 2.192C34.936 2.192 36.5933 2.764 37.972 3.908C39.38 5.052 40.4653 6.69467 41.228 8.836C41.9907 10.948 42.372 13.4853 42.372 16.448C42.372 19.4693 41.9907 22.036 41.228 24.148C40.4653 26.2307 39.38 27.8147 37.972 28.9C36.5933 29.9853 34.936 30.528 33 30.528ZM33 26.7C34.056 26.7 34.936 26.304 35.64 25.512C36.344 24.72 36.872 23.5613 37.224 22.036C37.576 20.5107 37.752 18.648 37.752 16.448C37.752 14.2773 37.576 12.444 37.224 10.948C36.872 9.42267 36.344 8.24933 35.64 7.428C34.936 6.60667 34.056 6.196 33 6.196C31.944 6.196 31.064 6.60667 30.36 7.428C29.656 8.24933 29.128 9.42267 28.776 10.948C28.424 12.444 28.248 14.2773 28.248 16.448C28.248 18.648 28.424 20.5107 28.776 22.036C29.128 23.5613 29.656 24.72 30.36 25.512C31.064 26.304 31.944 26.7 33 26.7Z" fill="#FF0000"/>
<path d="M55.9684 7.81818V12.0227H43.8146V7.81818H55.9684ZM46.5739 2.98295H52.1712V21.7983C52.1712 22.3151 52.25 22.718 52.4077 23.0071C52.5653 23.2874 52.7843 23.4845 53.0646 23.5984C53.3537 23.7122 53.6866 23.7692 54.0632 23.7692C54.326 23.7692 54.5888 23.7473 54.8516 23.7035C55.1143 23.6509 55.3158 23.6115 55.456 23.5852L56.3363 27.7504C56.056 27.8379 55.6618 27.9387 55.1538 28.0526C54.6457 28.1752 54.0282 28.2496 53.3011 28.2759C51.9522 28.3285 50.7696 28.1489 49.7536 27.7372C48.7462 27.3255 47.9622 26.6861 47.4016 25.8189C46.841 24.9517 46.5651 23.8568 46.5739 22.5341V2.98295ZM65.6454 16.3324V28H60.0481V1.09091H65.4877V11.3789H65.7243C66.1797 10.1876 66.9155 9.25473 67.9316 8.58025C68.9477 7.89702 70.2222 7.5554 71.7552 7.5554C73.1567 7.5554 74.3786 7.86198 75.421 8.47514C76.4721 9.07954 77.2868 9.95111 77.8649 11.0898C78.4518 12.2198 78.7408 13.5732 78.7321 15.1499V28H73.1348V16.1484C73.1435 14.9046 72.8282 13.9367 72.1887 13.2447C71.5581 12.5527 70.6734 12.2067 69.5346 12.2067C68.7726 12.2067 68.0981 12.3687 67.5112 12.6928C66.9331 13.0169 66.4776 13.4899 66.1447 14.1119C65.8206 14.725 65.6542 15.4652 65.6454 16.3324ZM88.7343 16.3324V28H83.137V7.81818H88.4715V11.3789H88.708C89.1547 10.2051 89.9037 9.27663 90.9548 8.59339C92.0059 7.9014 93.2805 7.5554 94.7783 7.5554C96.1798 7.5554 97.4018 7.86198 98.4442 8.47514C99.4865 9.0883 100.297 9.96425 100.875 11.103C101.453 12.233 101.742 13.5819 101.742 15.1499V28H96.1448V16.1484C96.1536 14.9134 95.8382 13.9498 95.1988 13.2578C94.5593 12.5571 93.679 12.2067 92.5578 12.2067C91.8045 12.2067 91.1388 12.3687 90.5606 12.6928C89.9913 13.0169 89.5445 13.4899 89.2204 14.1119C88.9051 14.725 88.743 15.4652 88.7343 16.3324Z" fill="white"/>
</g>
<defs>
<clipPath id="clip0_10_15679">
<rect width="103" height="32" fill="white"/>
</clipPath>
</defs>
</svg>
